# File generated by ImageToStl.com - Free Image and 3D model conversion tools

mtllib revolvedoor.mtl

o obj1
v 0.03869101 0.93478623 0.1581626
v 0.14717299 0.93530051 0.1581626
v 0.12354581 0.93593903 0.1581626
v 0.20140916 0.9340491 0.1581626
v 0.35923237 0.93333541 0.1581626
v 0.27635306 0.93395341 0.1581626
v 0.40930323 0.93249507 0.1581626
v 0.43593892 0.93197074 0.1581626
v 0.49661732 0.93639633 0.1581626
v 0.45485538 0.93418205 0.1581626
v 0.53340515 0.93717027 0.1581626
v 0.57336407 0.90356036 0.1581626
v 0.56408196 0.93517298 0.1581626
v 0.58630892 0.801279 0.1581626
v 0.58109563 0.8600986 0.1581626
v 0.58307937 0.7337886 0.1581626
v 0.58512309 0.76384389 0.1581626
v 0.57692227 0.6980283 0.1581626
v 0.58132693 0.71564433 0.1581626
v 0.56663348 0.6194096 0.1581626
v 0.57041965 0.53622235 0.1581626
v 0.57144573 0.55100165 0.1581626
v 0.56916669 0.52640611 0.1581626
v 0.5677033 0.51669455 0.1581626
v 0.56575482 0.51019976 0.1581626
v 0.5558245 0.50314422 0.1581626
v 0.56185296 0.50556034 0.1581626
v 0.27241261 0.50149649 0.1581626
v 0.54370782 0.50162674 0.1581626
v -0.01898697 0.50432616 0.1581626
v 0.09026489 0.50261871 0.1581626
v -0.02107871 0.52636785 0.1581626
v -0.02061069 0.51467834 0.1581626
v -0.02372492 0.54849759 0.1581626
v -0.02922613 0.59275009 0.1581626
v -0.02657679 0.56578269 0.1581626
v -0.0256734 0.63255401 0.1581626
v -0.01099145 0.72867166 0.1581626
v -0.01833569 0.68540327 0.1581626
v -0.00784448 0.7491932 0.1581626
v -0.01695689 0.80412942 0.1581626
v -0.0120827 0.77055858 0.1581626
v -0.02088684 0.84022275 0.1581626
v -0.01733392 0.88282467 0.1581626
v -0.01953296 0.86767966 0.1581626
v -0.0186274 0.92992654 0.1581626
v -0.01421289 0.93719431 0.1581626
v -0.02210547 0.93571317 0.1581626
v -0.0164078 0.91646902 0.1581626
v -0.00557739 0.93720026 0.1581626
v 0.56622797 0.65582509 0.1581626
v -0.01576537 0.90237995 0.1581626
v 0.00380118 0.93573099 0.1581626
v 0.57104827 0.67555672 0.1581626
v 0.12354581 0.93593903 0.09922588
v 0.14717299 0.93530051 0.09922588
v 0.03869101 0.93478623 0.09922588
v 0.20140916 0.9340491 0.09922588
v 0.27635306 0.93395341 0.09922588
v 0.35923237 0.93333541 0.09922588
v 0.40930323 0.93249507 0.09922588
v 0.45485538 0.93418205 0.09922588
v 0.49661732 0.93639633 0.09922588
v 0.43593892 0.93197074 0.09922588
v 0.53340515 0.93717027 0.09922588
v 0.56408196 0.93517298 0.09922588
v 0.57336407 0.90356036 0.09922588
v 0.58109563 0.8600986 0.09922588
v 0.58630892 0.801279 0.09922588
v 0.58512309 0.76384389 0.09922588
v 0.58307937 0.7337886 0.09922588
v 0.58132693 0.71564433 0.09922588
v 0.57692227 0.6980283 0.09922588
v 0.57144573 0.55100165 0.09922588
v 0.57041965 0.53622235 0.09922588
v 0.56663348 0.6194096 0.09922588
v 0.56916669 0.52640611 0.09922588
v 0.5677033 0.51669455 0.09922588
v 0.56575482 0.51019976 0.09922588
v 0.56185296 0.50556034 0.09922588
v 0.5558245 0.50314422 0.09922588
v 0.54370782 0.50162674 0.09922588
v 0.27241261 0.50149649 0.09922588
v 0.09026489 0.50261871 0.09922588
v -0.01898697 0.50432616 0.09922588
v -0.02061069 0.51467834 0.09922588
v -0.02107871 0.52636785 0.09922588
v -0.02657679 0.56578269 0.09922588
v -0.02922613 0.59275009 0.09922588
v -0.02372492 0.54849759 0.09922588
v -0.0256734 0.63255401 0.09922588
v -0.01833569 0.68540327 0.09922588
v -0.01099145 0.72867166 0.09922588
v -0.0120827 0.77055858 0.09922588
v -0.01695689 0.80412942 0.09922588
v -0.00784448 0.7491932 0.09922588
v -0.02088684 0.84022275 0.09922588
v -0.01953296 0.86767966 0.09922588
v -0.01733392 0.88282467 0.09922588
v -0.02210547 0.93571317 0.09922588
v -0.01421289 0.93719431 0.09922588
v -0.0186274 0.92992654 0.09922588
v -0.0164078 0.91646902 0.09922588
v -0.00557739 0.93720026 0.09922588
v 0.56622797 0.65582509 0.09922588
v -0.01576537 0.90237995 0.09922588
v 0.00380118 0.93573099 0.09922588
v 0.57104827 0.67555672 0.09922588
v 0.03869101 0.93478623 0.09922588
v 0.00380118 0.93573099 0.09922588
v 0.12354581 0.93593903 0.09922588
v 0.14717299 0.93530051 0.09922588
v 0.20140916 0.9340491 0.09922588
v 0.27635306 0.93395341 0.09922588
v 0.35923237 0.93333541 0.09922588
v 0.40930323 0.93249507 0.09922588
v 0.43593892 0.93197074 0.09922588
v 0.45485538 0.93418205 0.09922588
v 0.49661732 0.93639633 0.09922588
v 0.53340515 0.93717027 0.09922588
v 0.56408196 0.93517298 0.09922588
v 0.57336407 0.90356036 0.09922588
v 0.58109563 0.8600986 0.09922588
v 0.58630892 0.801279 0.09922588
v 0.58512309 0.76384389 0.09922588
v 0.58307937 0.7337886 0.09922588
v 0.58132693 0.71564433 0.09922588
v 0.57692227 0.6980283 0.09922588
v 0.57104827 0.67555672 0.09922588
v 0.56622797 0.65582509 0.09922588
v 0.56663348 0.6194096 0.09922588
v 0.57144573 0.55100165 0.09922588
v 0.57041965 0.53622235 0.09922588
v 0.56916669 0.52640611 0.09922588
v 0.5677033 0.51669455 0.09922588
v 0.56575482 0.51019976 0.09922588
v 0.56185296 0.50556034 0.09922588
v 0.5558245 0.50314422 0.09922588
v 0.54370782 0.50162674 0.09922588
v 0.27241261 0.50149649 0.09922588
v 0.09026489 0.50261871 0.09922588
v -0.01898697 0.50432616 0.09922588
v -0.02061069 0.51467834 0.09922588
v -0.02107871 0.52636785 0.09922588
v -0.02372492 0.54849759 0.09922588
v -0.02657679 0.56578269 0.09922588
v -0.02922613 0.59275009 0.09922588
v -0.0256734 0.63255401 0.09922588
v -0.01833569 0.68540327 0.09922588
v -0.01099145 0.72867166 0.09922588
v -0.00784448 0.7491932 0.09922588
v -0.0120827 0.77055858 0.09922588
v -0.01695689 0.80412942 0.09922588
v -0.02088684 0.84022275 0.09922588
v -0.01953296 0.86767966 0.09922588
v -0.01733392 0.88282467 0.09922588
v -0.01576537 0.90237995 0.09922588
v -0.0164078 0.91646902 0.09922588
v -0.0186274 0.92992654 0.09922588
v -0.02210547 0.93571317 0.09922588
v -0.01421289 0.93719431 0.09922588
v -0.00557739 0.93720026 0.09922588
vn 0 0 1
vn 0 0 -1
vn 0.12754 0.99183 0
vn 0.00948 0.99996 0
vn 0.00944 0.99996 0
vn 0.03518 0.99938 0
vn 0.01711 0.99985 0
vn 0.00614 0.99998 0
vn 0.01703 0.99985 0
vn 0.02562 0.99967 0
vn -0.06784 0.9977 0
vn -0.11845 0.99296 0
vn -0.05196 0.99865 0
vn 0.0309 0.99952 0
vn 0.09113 0.99584 0
vn 0.97887 0.20449 0
vn 0.98631 0.16492 0
vn 0.99555 0.09421 0
vn 0.9998 0.02018 0
vn 0.99937 -0.03543 0
vn 0.99829 -0.05844 0
vn 0.99257 -0.1217 0
vn 0.98385 -0.179 0
vn 0.9842 -0.17704 0
vn 0.99668 -0.08136 0
vn 0.99958 0.02895 0
vn 1 0.00033 0
vn 0.99756 -0.06988 0
vn 0.99514 -0.09852 0
vn 0.98752 -0.1575 0
vn 0.93341 -0.35882 0
vn 0.71303 -0.70114 0
vn 0.34139 -0.93992 0
vn 0.08767 -0.99615 0
vn -0.00399 -0.99999 0
vn -0.01531 -0.99988 0
vn -0.02196 -0.99976 0
vn -0.99383 -0.11091 0
vn -0.99757 -0.06964 0
vn -0.9984 -0.0566 0
vn -0.99492 -0.10067 0
vn -0.99565 -0.09314 0
vn -0.99999 -0.00317 0
vn -0.99673 0.08083 0
vn -0.99403 0.1091 0
vn -0.99346 0.11418 0
vn -0.99988 -0.01553 0
vn -0.99262 -0.12124 0
vn -0.99594 -0.08999 0
vn -0.99978 -0.02106 0
vn -0.99763 0.06887 0
vn -0.99681 0.07985 0
vn -0.99992 0.01226 0
vn -0.99723 -0.07443 0
vn -0.96745 -0.25308 0
vn -0.91945 -0.3932 0
vn -0.25504 0.96693 0
vn -0.13011 0.9915 0
vn 0.1083 0.99412 0
vt 0.49465 0.49741
vt 0.56226 0.55192
vt 0.55235 0.53885
vt 0.55964 0.61619
vt 0.58988 0.69343
vt 0.58318 0.65814
vt 0.5776 0.7226
vt 0.5741 0.74905
vt 0.58153 0.79071
vt 0.58231 0.76593
vt 0.57211 0.8256
vt 0.54457 0.85978
vt 0.56767 0.84724
vt 0.4565 0.86746
vt 0.51272 0.8752
vt 0.39413 0.88629
vt 0.42236 0.88347
vt 0.35559 0.86442
vt 0.37443 0.88635
vt 0.2737 0.88927
vt 0.20376 0.92687
vt 0.21557 0.9223
vt 0.19552 0.92873
vt 0.19111 0.92041
vt 0.19092 0.91644
vt 0.1609 0.89534
vt 0.16953 0.91404
vt 0.12509 0.71986
vt 0.13357 0.83672
vt 0.10127 0.51845
vt 0.09259 0.58738
vt 0.11724 0.50772
vt 0.10115 0.50495
vt 0.12387 0.47561
vt 0.16357 0.45818
vt 0.13408 0.46549
vt 0.20007 0.46086
vt 0.30208 0.44419
vt 0.26322 0.42903
vt 0.32691 0.45613
vt 0.37075 0.43023
vt 0.34136 0.43481
vt 0.41083 0.42344
vt 0.45312 0.4232
vt 0.44293 0.41597
vt 0.48756 0.44494
vt 0.49246 0.45263
vt 0.49086 0.44772
vt 0.4783 0.43884
vt 0.49335 0.45885
vt 0.30219 0.86479
vt 0.46575 0.43686
vt 0.49522 0.46662
vt 0.31729 0.85881
vt 0.61366 0.27052
vt 0.61366 0.25692
vt 0.61088 0.31923
vt 0.61383 0.22573
vt 0.61539 0.18268
vt 0.6167 0.13505
vt 0.61711 0.10626
vt 0.61947 0.08015
vt 0.62217 0.05622
vt 0.61727 0.09094
vt 0.62359 0.03512
vt 0.62265 0.01743
vt 0.59733 0.01113
vt 0.56241 0.00536
vt 0.51503 0.00056
vt 0.48478 9E-05
vt 0.46047 0.00034
vt 0.44579 0.00079
vt 0.43147 0.00278
vt 0.31264 0.00142
vt 0.30069 0.00156
vt 0.36777 0.00628
vt 0.29274 0.00198
vt 0.28486 0.00252
vt 0.27958 0.00344
vt 0.27575 0.00554
vt 0.27366 0.00893
vt 0.27218 0.01584
vt 0.26615 0.17168
vt 0.26308 0.27635
vt 0.26208 0.33916
vt 0.2704 0.34041
vt 0.27983 0.34103
vt 0.31153 0.3454
vt 0.33324 0.34775
vt 0.29764 0.34323
vt 0.36546 0.34693
vt 0.40829 0.34434
vt 0.44338 0.34144
vt 0.47718 0.34336
vt 0.50417 0.34718
vt 0.46002 0.34027
vt 0.53323 0.35055
vt 0.55543 0.35061
vt 0.5677 0.34981
vt 0.6103 0.35418
vt 0.61167 0.34969
vt 0.6057 0.352
vt 0.59489 0.35031
vt 0.61186 0.34473
vt 0.39716 0.00763
vt 0.58352 0.34951
vt 0.61088 0.3393
vt 0.4132 0.00547
vt 0.56055 0.45399
vt 0.55447 0.41184
vt 0.59327 0.48191
vt 0.61527 0.49819
vt 0.64735 0.5434
vt 0.66837 0.61424
vt 0.67711 0.68138
vt 0.64588 0.73588
vt 0.64269 0.75909
vt 0.64071 0.76691
vt 0.64208 0.79669
vt 0.63926 0.82653
vt 0.63204 0.8645
vt 0.6229 0.89857
vt 0.56964 0.94386
vt 0.49221 0.9445
vt 0.45115 0.95336
vt 0.412 0.96665
vt 0.38727 0.97665
vt 0.36449 0.99678
vt 0.34023 0.97147
vt 0.32757 0.97237
vt 0.29592 0.96952
vt 0.21263 0.99983
vt 0.18922 0.98995
vt 0.17288 0.98404
vt 0.15734 0.97229
vt 0.14313 0.96386
vt 0.14422 0.95682
vt 0.13147 0.95497
vt 0.12767 0.95375
vt 0.01488 0.72818
vt 3E-05 0.59296
vt 0.04591 0.49137
vt 0.0592 0.47058
vt 0.06182 0.44243
vt 0.06842 0.43397
vt 0.08999 0.41646
vt 0.12057 0.3835
vt 0.18324 0.33726
vt 0.24248 0.35136
vt 0.29185 0.37261
vt 0.3079 0.37821
vt 0.31717 0.37801
vt 0.37505 0.36126
vt 0.43191 0.34604
vt 0.46806 0.34493
vt 0.48813 0.35294
vt 0.50659 0.36806
vt 0.52084 0.37657
vt 0.52858 0.38543
vt 0.53883 0.38873
vt 0.5448 0.39602
vt 0.55048 0.40074
usemtl mat0
f 1/1/1 2/2/1 3/3/1
f 1/1/1 4/4/1 2/2/1
f 4/4/1 5/5/1 6/6/1
f 4/4/1 7/7/1 5/5/1
f 8/8/1 9/9/1 10/10/1
f 8/8/1 11/11/1 9/9/1
f 11/11/1 12/12/1 13/13/1
f 12/12/1 14/14/1 15/15/1
f 14/14/1 16/16/1 17/17/1
f 16/16/1 18/18/1 19/19/1
f 20/20/1 21/21/1 22/22/1
f 20/20/1 23/23/1 21/21/1
f 20/20/1 24/24/1 23/23/1
f 20/20/1 25/25/1 24/24/1
f 25/25/1 26/26/1 27/27/1
f 26/26/1 28/28/1 29/29/1
f 28/28/1 30/30/1 31/31/1
f 30/30/1 32/32/1 33/33/1
f 34/34/1 35/35/1 36/36/1
f 34/34/1 37/37/1 35/35/1
f 37/37/1 38/38/1 39/39/1
f 40/40/1 41/41/1 42/42/1
f 40/40/1 43/43/1 41/41/1
f 43/43/1 44/44/1 45/45/1
f 46/46/1 47/47/1 48/48/1
f 49/49/1 47/47/1 46/46/1
f 49/49/1 50/50/1 47/47/1
f 1/1/1 7/7/1 4/4/1
f 1/1/1 8/8/1 7/7/1
f 8/8/1 12/12/1 11/11/1
f 8/8/1 14/14/1 12/12/1
f 14/14/1 18/18/1 16/16/1
f 51/51/1 25/25/1 20/20/1
f 51/51/1 26/26/1 25/25/1
f 51/51/1 28/28/1 26/26/1
f 28/28/1 32/32/1 30/30/1
f 32/32/1 37/37/1 34/34/1
f 37/37/1 40/40/1 38/38/1
f 40/40/1 44/44/1 43/43/1
f 52/52/1 50/50/1 49/49/1
f 52/52/1 53/53/1 50/50/1
f 1/1/1 14/14/1 8/8/1
f 1/1/1 18/18/1 14/14/1
f 54/54/1 28/28/1 51/51/1
f 54/54/1 32/32/1 28/28/1
f 32/32/1 40/40/1 37/37/1
f 40/40/1 52/52/1 44/44/1
f 52/52/1 1/1/1 53/53/1
f 1/1/1 54/54/1 18/18/1
f 54/54/1 40/40/1 32/32/1
f 40/40/1 1/1/1 52/52/1
f 40/40/1 54/54/1 1/1/1
f 55/55/2 56/56/2 57/57/2
f 56/56/2 58/58/2 57/57/2
f 59/59/2 60/60/2 58/58/2
f 60/60/2 61/61/2 58/58/2
f 62/62/2 63/63/2 64/64/2
f 63/63/2 65/65/2 64/64/2
f 66/66/2 67/67/2 65/65/2
f 68/68/2 69/69/2 67/67/2
f 70/70/2 71/71/2 69/69/2
f 72/72/2 73/73/2 71/71/2
f 74/74/2 75/75/2 76/76/2
f 75/75/2 77/77/2 76/76/2
f 77/77/2 78/78/2 76/76/2
f 78/78/2 79/79/2 76/76/2
f 80/80/2 81/81/2 79/79/2
f 82/82/2 83/83/2 81/81/2
f 84/84/2 85/85/2 83/83/2
f 86/86/2 87/87/2 85/85/2
f 88/88/2 89/89/2 90/90/2
f 89/89/2 91/91/2 90/90/2
f 92/92/2 93/93/2 91/91/2
f 94/94/2 95/95/2 96/96/2
f 95/95/2 97/97/2 96/96/2
f 98/98/2 99/99/2 97/97/2
f 100/100/2 101/101/2 102/102/2
f 102/102/2 101/101/2 103/103/2
f 101/101/2 104/104/2 103/103/2
f 58/58/2 61/61/2 57/57/2
f 61/61/2 64/64/2 57/57/2
f 65/65/2 67/67/2 64/64/2
f 67/67/2 69/69/2 64/64/2
f 71/71/2 73/73/2 69/69/2
f 76/76/2 79/79/2 105/105/2
f 79/79/2 81/81/2 105/105/2
f 81/81/2 83/83/2 105/105/2
f 85/85/2 87/87/2 83/83/2
f 90/90/2 91/91/2 87/87/2
f 93/93/2 96/96/2 91/91/2
f 97/97/2 99/99/2 96/96/2
f 103/103/2 104/104/2 106/106/2
f 104/104/2 107/107/2 106/106/2
f 64/64/2 69/69/2 57/57/2
f 69/69/2 73/73/2 57/57/2
f 105/105/2 83/83/2 108/108/2
f 83/83/2 87/87/2 108/108/2
f 91/91/2 96/96/2 87/87/2
f 99/99/2 106/106/2 96/96/2
f 107/107/2 57/57/2 106/106/2
f 73/73/2 108/108/2 57/57/2
f 87/87/2 96/96/2 108/108/2
f 106/106/2 57/57/2 96/96/2
f 57/57/2 108/108/2 96/96/2
f 53/53/3 109/109/4 110/110/3
f 53/53/3 1/1/4 109/109/4
f 1/1/4 111/111/5 109/109/4
f 1/1/4 3/3/5 111/111/5
f 3/3/5 112/112/6 111/111/5
f 3/3/5 2/2/6 112/112/6
f 2/2/6 113/113/7 112/112/6
f 2/2/6 4/4/7 113/113/7
f 4/4/7 114/114/8 113/113/7
f 4/4/7 6/6/8 114/114/8
f 6/6/8 115/115/9 114/114/8
f 6/6/8 5/5/9 115/115/9
f 5/5/9 116/116/10 115/115/9
f 5/5/9 7/7/10 116/116/10
f 7/7/10 117/117/11 116/116/10
f 7/7/10 8/8/11 117/117/11
f 8/8/11 118/118/12 117/117/11
f 8/8/11 10/10/12 118/118/12
f 10/10/12 119/119/13 118/118/12
f 10/10/12 9/9/13 119/119/13
f 9/9/13 120/120/14 119/119/13
f 9/9/13 11/11/14 120/120/14
f 11/11/14 121/121/15 120/120/14
f 11/11/14 13/13/15 121/121/15
f 13/13/16 122/122/17 121/121/16
f 13/13/16 12/12/17 122/122/17
f 12/12/17 123/123/18 122/122/17
f 12/12/17 15/15/18 123/123/18
f 15/15/18 124/124/19 123/123/18
f 15/15/18 14/14/19 124/124/19
f 14/14/19 125/125/20 124/124/19
f 14/14/19 17/17/20 125/125/20
f 17/17/20 126/126/21 125/125/20
f 17/17/20 16/16/21 126/126/21
f 16/16/21 127/127/22 126/126/21
f 16/16/21 19/19/22 127/127/22
f 19/19/22 128/128/23 127/127/22
f 19/19/22 18/18/23 128/128/23
f 18/18/23 129/129/24 128/128/23
f 18/18/23 54/54/24 129/129/24
f 54/54/24 130/130/25 129/129/24
f 54/54/24 51/51/25 130/130/25
f 51/51/25 131/131/26 130/130/25
f 51/51/25 20/20/26 131/131/26
f 20/20/26 132/132/27 131/131/26
f 20/20/26 22/22/27 132/132/27
f 22/22/27 133/133/28 132/132/27
f 22/22/27 21/21/28 133/133/28
f 21/21/28 134/134/29 133/133/28
f 21/21/28 23/23/29 134/134/29
f 23/23/29 135/135/30 134/134/29
f 23/23/29 24/24/30 135/135/30
f 24/24/30 136/136/31 135/135/30
f 24/24/30 25/25/31 136/136/31
f 25/25/31 137/137/32 136/136/31
f 25/25/31 27/27/32 137/137/32
f 27/27/32 138/138/33 137/137/32
f 27/27/32 26/26/33 138/138/33
f 26/26/33 139/139/34 138/138/33
f 26/26/33 29/29/34 139/139/34
f 29/29/34 140/140/35 139/139/34
f 29/29/34 28/28/35 140/140/35
f 28/28/35 141/141/36 140/140/35
f 28/28/35 31/31/36 141/141/36
f 31/31/36 142/142/37 141/141/36
f 31/31/36 30/30/37 142/142/37
f 30/30/38 143/143/39 142/142/38
f 30/30/38 33/33/39 143/143/39
f 33/33/39 144/144/40 143/143/39
f 33/33/39 32/32/40 144/144/40
f 32/32/40 145/145/41 144/144/40
f 32/32/40 34/34/41 145/145/41
f 34/34/41 146/146/42 145/145/41
f 34/34/41 36/36/42 146/146/42
f 36/36/42 147/147/43 146/146/42
f 36/36/42 35/35/43 147/147/43
f 35/35/43 148/148/44 147/147/43
f 35/35/43 37/37/44 148/148/44
f 37/37/44 149/149/45 148/148/44
f 37/37/44 39/39/45 149/149/45
f 39/39/45 150/150/46 149/149/45
f 39/39/45 38/38/46 150/150/46
f 38/38/46 151/151/47 150/150/46
f 38/38/46 40/40/47 151/151/47
f 40/40/47 152/152/48 151/151/47
f 40/40/47 42/42/48 152/152/48
f 42/42/48 153/153/49 152/152/48
f 42/42/48 41/41/49 153/153/49
f 41/41/49 154/154/50 153/153/49
f 41/41/49 43/43/50 154/154/50
f 43/43/50 155/155/51 154/154/50
f 43/43/50 45/45/51 155/155/51
f 45/45/51 156/156/52 155/155/51
f 45/45/51 44/44/52 156/156/52
f 44/44/52 157/157/53 156/156/52
f 44/44/52 52/52/53 157/157/53
f 52/52/53 158/158/54 157/157/53
f 52/52/53 49/49/54 158/158/54
f 49/49/54 159/159/55 158/158/54
f 49/49/54 46/46/55 159/159/55
f 46/46/55 160/160/56 159/159/55
f 46/46/55 48/48/56 160/160/56
f 48/48/57 161/161/58 160/160/57
f 48/48/57 47/47/58 161/161/58
f 47/47/58 162/162/59 161/161/58
f 47/47/58 50/50/59 162/162/59
f 50/50/59 110/110/3 162/162/59
f 50/50/59 53/53/3 110/110/3
# Vertices: 162, normals: 59, texture coordinates: 162, faces: 212

